G04*
G04 #@! TF.GenerationSoftware,Altium Limited,Altium Designer,22.5.1 (42)*
G04*
G04 Layer_Color=65535*
%FSLAX44Y44*%
%MOMM*%
G71*
G04*
G04 #@! TF.SameCoordinates,58EBD81C-6F45-4402-977D-F62170CEE2AC*
G04*
G04*
G04 #@! TF.FilePolarity,Positive*
G04*
G01*
G75*
%ADD10C,0.2500*%
%ADD11C,0.2000*%
%ADD12C,0.1500*%
%ADD13C,0.2540*%
%ADD14C,0.1000*%
%ADD15C,0.1540*%
D10*
X121680Y6910D02*
G03*
X121680Y6910I-1250J0D01*
G01*
X30361Y171083D02*
G03*
X30361Y171083I-1250J0D01*
G01*
X14200Y170730D02*
G03*
X14200Y170730I-1250J0D01*
G01*
X136920Y36030D02*
G03*
X136920Y36030I-1250J0D01*
G01*
D11*
X44930Y11910D02*
X104930D01*
X44930Y71910D02*
X104930D01*
X44930Y11910D02*
Y71910D01*
X104930Y11910D02*
Y71910D01*
X22111Y153333D02*
Y163333D01*
X36111Y153333D02*
Y163333D01*
X6353Y151980D02*
Y162980D01*
X18950Y151980D02*
Y162980D01*
X135990Y13550D02*
Y24550D01*
X148490Y13550D02*
Y24550D01*
X108990Y94080D02*
X119990D01*
X108990Y106580D02*
X119990D01*
X157580Y13550D02*
Y24550D01*
X170080Y13550D02*
Y24550D01*
X49360Y106580D02*
X59860D01*
X49360Y94080D02*
X59860D01*
X138670Y45030D02*
Y54030D01*
X168670Y45030D02*
Y54030D01*
X138670Y45030D02*
X168670D01*
X138670Y54030D02*
X168670D01*
X24746Y146982D02*
Y141744D01*
X27365D01*
X28238Y142617D01*
Y146109D01*
X27365Y146982D01*
X24746D01*
X29984Y141744D02*
Y146982D01*
X32603D01*
X33476Y146109D01*
Y144363D01*
X32603Y143490D01*
X29984D01*
X31730D02*
X33476Y141744D01*
X8335Y146129D02*
Y140891D01*
X10954D01*
X11827Y141764D01*
Y145256D01*
X10954Y146129D01*
X8335D01*
X13573D02*
Y140891D01*
X16192D01*
X17065Y141764D01*
Y142637D01*
X16192Y143510D01*
X13573D01*
X16192D01*
X17065Y144383D01*
Y145256D01*
X16192Y146129D01*
X13573D01*
D12*
X53780Y119400D02*
X63280D01*
X99280D02*
X108780D01*
X41280Y135400D02*
Y149900D01*
X121280Y135400D02*
Y149900D01*
X41280Y173400D02*
X44280D01*
Y185400D01*
X118280D01*
Y173400D02*
Y185400D01*
Y173400D02*
X121280D01*
D13*
X0Y0D02*
Y175000D01*
X175000D01*
Y0D02*
Y175000D01*
X0Y0D02*
X175000D01*
X138178Y82739D02*
Y76074D01*
X139511Y74741D01*
X142177D01*
X143510Y76074D01*
Y82739D01*
X146176Y74741D02*
X148842D01*
X147509D01*
Y82739D01*
X146176Y81406D01*
X63498Y49528D02*
X66038Y52067D01*
Y57145D01*
X63498Y59684D01*
X60959D01*
X58420Y57145D01*
Y52067D01*
X55881Y49528D01*
X53342D01*
X50802Y52067D01*
Y57145D01*
X53342Y59684D01*
X66038Y44449D02*
X50802D01*
X55881Y39371D01*
X50802Y34292D01*
X66038D01*
X50802Y29214D02*
Y24136D01*
Y26675D01*
X66038D01*
X63498Y29214D01*
X49278Y81091D02*
Y89089D01*
X53277D01*
X54610Y87756D01*
Y85090D01*
X53277Y83757D01*
X49278D01*
X51944D02*
X54610Y81091D01*
X57276D02*
X59942D01*
X58609D01*
Y89089D01*
X57276Y87756D01*
D14*
X43200Y8386D02*
X41453D01*
X42326D01*
Y4021D01*
X41453Y3148D01*
X40580D01*
X39707Y4021D01*
X44946Y3148D02*
Y8386D01*
X46692Y6640D01*
X48438Y8386D01*
Y3148D01*
X50184Y8386D02*
X53676Y3148D01*
Y8386D02*
X50184Y3148D01*
X55422Y5767D02*
X58914D01*
X64153Y8386D02*
X60660D01*
Y5767D01*
X62407D01*
X60660D01*
Y3148D01*
X65899D02*
Y8386D01*
X69391Y3148D01*
Y8386D01*
X71137Y7513D02*
X72010Y8386D01*
X73756D01*
X74629Y7513D01*
Y4021D01*
X73756Y3148D01*
X72010D01*
X71137Y4021D01*
Y7513D01*
X76375D02*
X77248Y8386D01*
X78994D01*
X79868Y7513D01*
Y6640D01*
X78994Y5767D01*
X78121D01*
X78994D01*
X79868Y4894D01*
Y4021D01*
X78994Y3148D01*
X77248D01*
X76375Y4021D01*
X81614Y5767D02*
X85106D01*
X86852Y8386D02*
Y4894D01*
X88598Y3148D01*
X90344Y4894D01*
Y8386D01*
X92090Y3148D02*
Y4021D01*
X92963D01*
Y3148D01*
X92090D01*
X96455D02*
X98202D01*
X97329D01*
Y8386D01*
X96455Y7513D01*
X100821Y3148D02*
Y4021D01*
X101694D01*
Y3148D01*
X100821D01*
X105186Y7513D02*
X106059Y8386D01*
X107805D01*
X108678Y7513D01*
Y6640D01*
X107805Y5767D01*
X106932D01*
X107805D01*
X108678Y4894D01*
Y4021D01*
X107805Y3148D01*
X106059D01*
X105186Y4021D01*
D15*
X23130Y131810D02*
X28368D01*
X26622Y130064D01*
X28368Y128318D01*
X23130D01*
X25749Y126572D02*
Y123080D01*
X23130Y93710D02*
X28368D01*
X26622Y91964D01*
X28368Y90218D01*
X23130D01*
X25749Y88472D02*
Y84979D01*
X27495Y86726D02*
X24003D01*
X146658Y129513D02*
X151896D01*
Y132132D01*
X151023Y133005D01*
X150150D01*
X149277Y132132D01*
Y129513D01*
Y132132D01*
X148404Y133005D01*
X147531D01*
X146658Y132132D01*
Y129513D01*
X149277Y134751D02*
Y138244D01*
X146892Y90440D02*
X152130D01*
Y93059D01*
X151257Y93932D01*
X150384D01*
X149511Y93059D01*
Y90440D01*
Y93059D01*
X148638Y93932D01*
X147765D01*
X146892Y93059D01*
Y90440D01*
X149511Y95678D02*
Y99171D01*
X147765Y97424D02*
X151257D01*
X114300Y89026D02*
X112967Y90359D01*
X110301D01*
X108968Y89026D01*
Y83694D01*
X110301Y82361D01*
X112967D01*
X114300Y83694D01*
X116966Y82361D02*
X119632D01*
X118299D01*
Y90359D01*
X116966Y89026D01*
X162957Y8096D02*
X162084Y8969D01*
X160338D01*
X159465Y8096D01*
Y4604D01*
X160338Y3731D01*
X162084D01*
X162957Y4604D01*
X164703Y8096D02*
X165576Y8969D01*
X167322D01*
X168195Y8096D01*
Y7223D01*
X167322Y6350D01*
X166449D01*
X167322D01*
X168195Y5477D01*
Y4604D01*
X167322Y3731D01*
X165576D01*
X164703Y4604D01*
X141407Y8016D02*
X140574Y8849D01*
X138908D01*
X138075Y8016D01*
Y4684D01*
X138908Y3851D01*
X140574D01*
X141407Y4684D01*
X146405Y3851D02*
X143073D01*
X146405Y7183D01*
Y8016D01*
X145572Y8849D01*
X143906D01*
X143073Y8016D01*
M02*
