G04*
G04 #@! TF.GenerationSoftware,Altium Limited,Altium Designer,22.5.1 (42)*
G04*
G04 Layer_Physical_Order=2*
G04 Layer_Color=16711680*
%FSLAX44Y44*%
%MOMM*%
G71*
G04*
G04 #@! TF.SameCoordinates,58EBD81C-6F45-4402-977D-F62170CEE2AC*
G04*
G04*
G04 #@! TF.FilePolarity,Positive*
G04*
G01*
G75*
%ADD13C,0.2540*%
%ADD33C,0.8000*%
%ADD34O,1.1500X1.8000*%
%ADD35O,1.4500X2.0000*%
%ADD36C,1.2700*%
G36*
X138462Y96450D02*
X137446Y95263D01*
X137033Y94692D01*
X136684Y94135D01*
X136398Y93593D01*
X136176Y93065D01*
X136017Y92551D01*
X135922Y92052D01*
X135890Y91568D01*
X133350D01*
X133318Y92052D01*
X133223Y92551D01*
X133064Y93065D01*
X132842Y93593D01*
X132556Y94135D01*
X132207Y94692D01*
X131794Y95263D01*
X131318Y95849D01*
X130175Y97065D01*
X139065D01*
X138462Y96450D01*
D02*
G37*
G36*
X96552Y95180D02*
X95536Y93993D01*
X95123Y93422D01*
X94774Y92865D01*
X94488Y92323D01*
X94266Y91795D01*
X94107Y91281D01*
X94012Y90782D01*
X93980Y90298D01*
X91440D01*
X91408Y90782D01*
X91313Y91281D01*
X91154Y91795D01*
X90932Y92323D01*
X90646Y92865D01*
X90297Y93422D01*
X89884Y93993D01*
X89408Y94579D01*
X88265Y95795D01*
X97155D01*
X96552Y95180D01*
D02*
G37*
G36*
X66585Y79375D02*
X65970Y79978D01*
X64783Y80994D01*
X64212Y81407D01*
X63655Y81756D01*
X63113Y82042D01*
X62585Y82264D01*
X62071Y82423D01*
X61572Y82518D01*
X61088Y82550D01*
Y85090D01*
X61572Y85122D01*
X62071Y85217D01*
X62585Y85376D01*
X63113Y85598D01*
X63655Y85884D01*
X64212Y86233D01*
X64783Y86646D01*
X65369Y87122D01*
X66585Y88265D01*
Y79375D01*
D02*
G37*
G36*
X48330Y87662D02*
X49517Y86646D01*
X50088Y86233D01*
X50645Y85884D01*
X51188Y85598D01*
X51715Y85376D01*
X52229Y85217D01*
X52727Y85122D01*
X53212Y85090D01*
Y82550D01*
X52727Y82518D01*
X52229Y82423D01*
X51715Y82264D01*
X51188Y82042D01*
X50645Y81756D01*
X50088Y81407D01*
X49517Y80994D01*
X48931Y80518D01*
X47715Y79375D01*
Y88265D01*
X48330Y87662D01*
D02*
G37*
G36*
X94012Y82098D02*
X94107Y81600D01*
X94266Y81086D01*
X94488Y80558D01*
X94774Y80016D01*
X95123Y79459D01*
X95536Y78888D01*
X96012Y78301D01*
X97155Y77086D01*
X88265D01*
X88868Y77701D01*
X89884Y78888D01*
X90297Y79459D01*
X90646Y80016D01*
X90932Y80558D01*
X91154Y81086D01*
X91313Y81600D01*
X91408Y82098D01*
X91440Y82583D01*
X93980D01*
X94012Y82098D01*
D02*
G37*
G36*
X128421Y70606D02*
X128102Y70241D01*
X127816Y69821D01*
X127565Y69345D01*
X127349Y68815D01*
X127168Y68229D01*
X127021Y67589D01*
X126909Y66893D01*
X126831Y66141D01*
X126780Y64474D01*
X120493Y70760D01*
X121355Y70768D01*
X122913Y70889D01*
X123609Y71001D01*
X124249Y71148D01*
X124835Y71329D01*
X125365Y71546D01*
X125841Y71796D01*
X126261Y72082D01*
X126625Y72401D01*
X128421Y70606D01*
D02*
G37*
D13*
X43180Y83820D02*
X71120D01*
X92710Y72551D02*
Y100330D01*
X120430Y64410D02*
X134620Y78600D01*
Y101600D01*
D33*
X56280Y133900D02*
D03*
X106280D02*
D03*
D34*
X42530Y161400D02*
D03*
X120030D02*
D03*
D35*
X44030Y123400D02*
D03*
X118530D02*
D03*
D36*
X43180Y83820D02*
D03*
X92710Y72551D02*
D03*
X71120Y83820D02*
D03*
X92710Y100330D02*
D03*
X134620Y101600D02*
D03*
X120430Y64410D02*
D03*
M02*
