G04*
G04 #@! TF.GenerationSoftware,Altium Limited,Altium Designer,22.5.1 (42)*
G04*
G04 Layer_Color=8388736*
%FSLAX44Y44*%
%MOMM*%
G71*
G04*
G04 #@! TF.SameCoordinates,58EBD81C-6F45-4402-977D-F62170CEE2AC*
G04*
G04*
G04 #@! TF.FilePolarity,Positive*
G04*
G01*
G75*
%ADD14C,0.1000*%
%ADD37C,0.0508*%
D14*
X44280Y179400D02*
X118280D01*
D37*
X94280Y183465D02*
X92539D01*
X91958Y183272D01*
X91765Y183078D01*
X91571Y182691D01*
Y182111D01*
X91765Y181724D01*
X91958Y181530D01*
X92539Y181337D01*
X94280D01*
Y185400D01*
X87760Y182304D02*
X87953Y181917D01*
X88340Y181530D01*
X88727Y181337D01*
X89501D01*
X89888Y181530D01*
X90275Y181917D01*
X90468Y182304D01*
X90662Y182885D01*
Y183852D01*
X90468Y184433D01*
X90275Y184820D01*
X89888Y185207D01*
X89501Y185400D01*
X88727D01*
X88340Y185207D01*
X87953Y184820D01*
X87760Y184433D01*
X86618Y181337D02*
Y185400D01*
Y181337D02*
X84877D01*
X84296Y181530D01*
X84103Y181724D01*
X83909Y182111D01*
Y182498D01*
X84103Y182885D01*
X84296Y183078D01*
X84877Y183272D01*
X86618D02*
X84877D01*
X84296Y183465D01*
X84103Y183659D01*
X83909Y184046D01*
Y184626D01*
X84103Y185013D01*
X84296Y185207D01*
X84877Y185400D01*
X86618D01*
X77292Y181337D02*
X79808D01*
Y185400D01*
X77292D01*
X79808Y183272D02*
X78260D01*
X74293Y181337D02*
Y185400D01*
Y183272D02*
X74680Y182885D01*
X75067Y182691D01*
X75648D01*
X76035Y182885D01*
X76422Y183272D01*
X76615Y183852D01*
Y184239D01*
X76422Y184820D01*
X76035Y185207D01*
X75648Y185400D01*
X75067D01*
X74680Y185207D01*
X74293Y184820D01*
X70888Y182691D02*
Y185787D01*
X71081Y186367D01*
X71275Y186561D01*
X71662Y186754D01*
X72242D01*
X72629Y186561D01*
X70888Y183272D02*
X71275Y182885D01*
X71662Y182691D01*
X72242D01*
X72629Y182885D01*
X73016Y183272D01*
X73210Y183852D01*
Y184239D01*
X73016Y184820D01*
X72629Y185207D01*
X72242Y185400D01*
X71662D01*
X71275Y185207D01*
X70888Y184820D01*
X69805Y183852D02*
X67483D01*
Y183465D01*
X67676Y183078D01*
X67870Y182885D01*
X68257Y182691D01*
X68837D01*
X69224Y182885D01*
X69611Y183272D01*
X69805Y183852D01*
Y184239D01*
X69611Y184820D01*
X69224Y185207D01*
X68837Y185400D01*
X68257D01*
X67870Y185207D01*
X67483Y184820D01*
M02*
